<?xml version="1.0" standalone="no"?>
<!DOCTYPE svg PUBLIC "-//W3C//DTD SVG 20010904//EN"
 "http://www.w3.org/TR/2001/REC-SVG-20010904/DTD/svg10.dtd">
<svg version="1.0" xmlns="http://www.w3.org/2000/svg"
 width="2560.000000pt" height="1440.000000pt" viewBox="0 0 2560.000000 1440.000000"
 preserveAspectRatio="xMidYMid meet">

<g transform="translate(0.000000,1440.000000) scale(0.100000,-0.100000)"
fill="#000000" stroke="none">
<path d="M25520 13425 c0 -12 -16 -15 -80 -15 -47 0 -80 -4 -80 -10 0 -6 -33
-10 -80 -10 l-80 0 0 -39 0 -40 -47 -3 c-40 -3 -49 -7 -63 -33 -9 -16 -29 -36
-44 -43 -15 -8 -31 -24 -36 -36 -4 -12 -15 -28 -25 -36 -14 -12 -18 -12 -25 1
-8 12 -13 10 -32 -9 -19 -19 -21 -24 -9 -32 13 -7 13 -11 1 -25 -8 -10 -24
-21 -36 -25 -12 -5 -28 -21 -36 -37 -7 -15 -24 -33 -38 -40 -14 -6 -32 -24
-41 -39 -8 -16 -27 -35 -43 -43 -15 -9 -32 -27 -39 -40 -7 -14 -25 -32 -40
-40 -15 -9 -33 -27 -40 -40 -7 -13 -21 -29 -32 -35 -11 -6 -36 -23 -56 -38
-20 -16 -42 -28 -47 -28 -6 0 -19 -11 -30 -25 -11 -14 -29 -25 -40 -25 -20 0
-82 -53 -82 -71 0 -5 -18 -9 -40 -9 -29 0 -40 -4 -40 -15 0 -11 -11 -15 -40
-15 -22 0 -40 -4 -40 -10 0 -6 -33 -10 -80 -10 l-80 0 0 -30 0 -30 -89 0 c-84
0 -91 -2 -109 -25 -11 -14 -25 -25 -31 -25 -6 0 -11 -7 -11 -15 0 -11 -12 -15
-49 -15 -41 0 -53 -4 -69 -25 -23 -28 -42 -33 -42 -9 0 12 -10 8 -40 -16 -30
-24 -40 -28 -40 -16 0 24 -19 19 -42 -9 -19 -24 -23 -25 -149 -25 -79 0 -129
4 -129 10 0 6 -20 10 -44 10 -26 0 -48 6 -56 15 -10 12 -45 15 -196 15 -116 0
-184 -4 -184 -10 0 -5 -18 -10 -40 -10 -37 0 -135 -27 -178 -49 -41 -21 -91
-42 -147 -60 -33 -11 -59 -25 -58 -30 4 -14 -35 -34 -53 -27 -7 3 -29 -1 -48
-9 -20 -8 -54 -15 -76 -15 -29 0 -40 -4 -40 -15 0 -11 -11 -15 -40 -15 -29 0
-40 -4 -40 -15 0 -12 -16 -15 -80 -15 -47 0 -80 -4 -80 -10 0 -5 -18 -10 -40
-10 -29 0 -40 -4 -40 -15 0 -8 -4 -15 -9 -15 -12 0 -71 -59 -71 -71 0 -5 -4
-9 -9 -9 -12 0 -71 -59 -71 -71 0 -5 -4 -9 -9 -9 -12 0 -71 -59 -71 -71 0 -5
-4 -9 -9 -9 -17 0 -71 -61 -71 -80 0 -19 -54 -80 -71 -80 -5 0 -9 -5 -9 -11 0
-6 -11 -20 -25 -31 -14 -11 -25 -26 -25 -33 0 -19 -176 -195 -195 -195 -7 0
-22 -11 -33 -25 -11 -14 -30 -25 -42 -25 -12 0 -31 -11 -42 -25 -11 -14 -29
-25 -40 -25 -27 0 -78 -31 -78 -47 0 -8 -14 -13 -40 -13 -22 0 -40 -4 -40 -10
0 -5 -17 -10 -38 -10 -21 0 -47 -7 -58 -15 -12 -9 -42 -14 -81 -15 -49 0 -63
-3 -63 -15 0 -11 -11 -15 -40 -15 -22 0 -40 -4 -40 -10 0 -5 -18 -10 -40 -10
-29 0 -40 -4 -40 -15 0 -11 -11 -15 -40 -15 -22 0 -40 5 -40 10 0 6 -18 10
-40 10 -22 0 -40 -4 -40 -10 0 -6 -47 -10 -120 -10 -73 0 -120 -4 -120 -10 0
-5 -18 -10 -40 -10 -22 0 -40 5 -40 10 0 6 -18 10 -40 10 -29 0 -40 -4 -40
-15 0 -12 -20 -15 -120 -15 -66 0 -120 -4 -120 -8 0 -5 -53 -12 -117 -15 -66
-4 -119 -11 -121 -17 -2 -5 -26 -10 -54 -10 -42 0 -53 -4 -70 -25 -11 -14 -24
-25 -30 -25 -5 0 -28 -14 -49 -31 -29 -23 -39 -27 -39 -15 0 24 -19 19 -42 -9
-11 -14 -24 -25 -30 -25 -5 0 -27 -13 -48 -30 -21 -16 -43 -30 -48 -30 -6 0
-19 -11 -30 -25 -11 -14 -25 -25 -31 -25 -6 0 -11 -4 -11 -9 0 -17 -61 -71
-80 -71 -19 0 -80 -54 -80 -71 0 -5 -6 -9 -13 -9 -7 0 -18 -9 -25 -20 -7 -12
-23 -25 -37 -30 -13 -5 -29 -21 -37 -37 -7 -15 -26 -34 -41 -41 -16 -8 -32
-24 -37 -37 -5 -14 -18 -30 -30 -37 -11 -7 -20 -18 -20 -25 0 -7 -4 -13 -9
-13 -5 0 -23 -14 -40 -31 -17 -17 -31 -35 -31 -40 0 -5 -4 -9 -9 -9 -5 0 -23
-14 -40 -31 -17 -17 -31 -35 -31 -40 0 -5 -4 -9 -9 -9 -12 0 -71 -59 -71 -71
0 -5 -4 -9 -9 -9 -12 0 -71 -59 -71 -71 0 -5 -11 -9 -24 -9 -16 0 -35 -13 -56
-40 -31 -39 -33 -40 -96 -40 -47 0 -64 -4 -64 -14 0 -10 -55 -14 -277 -20
-249 -7 -281 -9 -316 -28 -32 -16 -41 -17 -48 -6 -6 10 -11 10 -21 0 -7 -7
-38 -12 -75 -12 -35 0 -63 -4 -63 -8 0 -14 -295 -24 -1085 -34 -1115 -14
-1297 -14 -1515 2 -107 8 -310 15 -450 15 -186 0 -261 3 -277 13 -12 6 -35 12
-51 12 -24 0 -45 15 -103 74 -41 41 -98 104 -127 140 -29 36 -57 66 -63 66 -5
0 -9 9 -9 20 0 11 -6 20 -13 20 -7 0 -19 11 -27 24 -20 32 -91 109 -95 104 -4
-4 74 -161 118 -238 15 -25 39 -70 54 -100 15 -30 30 -57 34 -60 8 -6 48 -78
110 -196 l47 -92 -28 2 c-34 2 -49 14 -31 25 10 7 10 9 -1 13 -9 4 -14 -2 -16
-18 -2 -25 22 -44 58 -44 12 0 28 -7 36 -15 12 -12 12 -18 2 -35 -17 -27 -28
-25 -28 6 0 24 -3 26 -29 21 -27 -6 -31 -3 -48 33 -29 63 -43 50 -23 -21 6
-21 19 -39 32 -45 13 -6 17 -9 11 -7 -7 1 -13 -2 -13 -7 0 -6 -7 -10 -15 -10
-8 0 -15 -4 -15 -10 0 -5 -5 -10 -11 -10 -6 0 -8 8 -4 19 3 10 -1 24 -10 31
-8 7 -15 20 -15 28 0 12 -3 13 -12 4 -9 -9 -7 -16 6 -31 21 -23 10 -32 -23
-20 -19 7 -21 12 -12 23 9 11 9 19 0 34 -10 16 -10 23 4 37 23 22 21 35 -4 35
-16 0 -19 -4 -14 -20 5 -14 2 -20 -9 -20 -9 0 -16 -4 -16 -9 0 -5 -13 -4 -30
2 -22 8 -26 14 -19 24 8 9 7 17 -4 28 -21 20 -27 19 -27 -7 0 -12 -3 -18 -7
-14 -5 4 -8 13 -8 19 0 7 -11 14 -25 15 -21 3 -22 2 -11 -12 11 -13 11 -19 1
-31 -19 -23 -27 -18 -34 24 -5 30 -14 44 -46 65 -38 25 -68 28 -54 5 9 -15
-16 -39 -41 -39 -15 0 -25 8 -29 22 -4 19 -7 20 -18 9 -9 -9 -9 -15 -2 -17 12
-5 6 -64 -7 -64 -5 0 -9 11 -9 24 0 13 -7 29 -15 36 -12 10 -13 7 -5 -21 5
-17 8 -35 5 -38 -6 -11 -73 -12 -80 -1 -6 10 13 15 48 12 24 -2 21 15 -4 23
-17 6 -19 9 -8 16 10 6 6 9 -13 9 -14 0 -29 6 -31 13 -3 6 -6 -3 -6 -20 -1
-28 -5 -33 -26 -33 -26 0 -47 -32 -38 -57 7 -19 -11 -16 -40 7 -18 15 -34 19
-52 14 -19 -5 -23 -10 -16 -17 6 -6 11 -17 11 -25 0 -11 -3 -12 -14 -3 -7 6
-21 9 -30 5 -13 -5 -15 -1 -10 25 5 24 3 31 -10 31 -9 0 -18 0 -21 0 -3 0 -5
-3 -4 -6 0 -4 -5 -11 -13 -15 -10 -7 -9 -9 5 -9 9 0 17 -4 17 -10 0 -5 -8 -10
-19 -10 -10 0 -24 -7 -31 -15 -16 -19 -30 -19 -30 -1 0 8 10 16 23 19 20 3 20
4 4 11 -12 6 -23 2 -37 -14 -24 -28 -24 -30 -4 -44 12 -9 7 -11 -25 -8 -28 3
-41 9 -41 19 0 11 -4 13 -12 6 -7 -5 -40 -10 -73 -12 -33 -1 -65 -7 -72 -13
-10 -8 -13 -6 -13 5 0 24 -22 32 -35 14 -10 -14 -18 -15 -43 -6 -17 6 -33 17
-36 25 -7 17 -33 19 -39 2 -3 -10 -8 -10 -21 1 -13 11 -20 11 -28 3 -15 -15
-48 -16 -48 -2 0 6 9 10 20 10 24 0 27 15 4 24 -24 9 -28 8 -42 -15 -10 -16
-11 -24 -1 -35 6 -8 9 -17 6 -20 -9 -9 -47 20 -47 35 0 11 -3 12 -12 3 -8 -8
-8 -15 2 -27 8 -10 9 -15 1 -15 -6 0 -11 -7 -11 -15 0 -17 -9 -19 -29 -6 -10
7 -11 13 -2 30 9 17 9 21 -2 21 -20 0 -41 -26 -27 -35 5 -3 10 -13 10 -21 0
-8 -4 -12 -10 -9 -5 3 -10 1 -10 -5 0 -7 -6 -10 -14 -7 -7 3 -19 0 -25 -6 -9
-9 -15 -8 -22 6 -15 26 -39 21 -39 -8 0 -19 -5 -25 -22 -25 -13 0 -36 -7 -51
-15 -15 -8 -35 -11 -44 -8 -13 5 -15 2 -11 -15 4 -12 2 -20 -2 -17 -5 3 -19 1
-32 -3 -33 -13 -54 -4 -31 14 17 13 17 13 1 14 -21 0 -24 16 -5 23 9 4 9 6 -1
6 -7 1 -11 5 -8 9 2 4 1 14 -5 22 -7 12 -9 10 -9 -7 0 -18 -6 -23 -24 -23 -13
0 -27 7 -30 16 -3 8 -10 12 -16 9 -5 -3 -10 1 -10 9 0 8 4 17 8 20 4 2 26 40
47 83 22 43 42 80 45 83 3 3 11 16 18 30 6 14 20 39 30 55 9 17 32 57 51 90
19 33 53 94 76 135 23 41 86 154 140 250 54 96 120 212 147 258 26 45 48 85
48 88 0 3 8 18 19 32 34 49 112 204 108 216 -3 6 -10 -1 -17 -16 -13 -28 -30
-38 -30 -18 0 6 6 10 13 10 8 0 7 4 -3 10 -13 9 -13 11 0 20 21 13 6 13 -24
-2 -20 -9 -25 -16 -21 -37 5 -25 5 -25 -4 -3 -11 23 -5 52 13 64 8 5 7 8 0 8
-13 0 -51 -60 -189 -295 -48 -82 -113 -193 -145 -245 -31 -52 -96 -162 -145
-245 -48 -82 -107 -181 -130 -220 -22 -38 -44 -77 -48 -85 -4 -8 -16 -28 -27
-45 -11 -16 -27 -45 -37 -62 -9 -18 -20 -33 -25 -33 -4 0 -8 -5 -8 -11 0 -5
-11 -26 -24 -45 -19 -28 -25 -32 -35 -21 -6 8 -9 22 -5 31 3 9 5 16 3 16 -2 0
-18 4 -36 9 -26 7 -31 7 -26 -5 3 -8 -1 -14 -11 -14 -18 0 -20 -13 -6 -41 12
-21 49 -26 67 -8 7 7 12 6 16 -5 5 -13 -1 -16 -26 -16 -30 -1 -31 -2 -13 -15
10 -7 15 -19 11 -25 -6 -9 -9 -9 -15 0 -4 7 -32 15 -61 18 -30 3 -58 10 -62
16 -5 6 -6 0 -3 -14 5 -23 2 -26 -21 -25 -14 0 -28 -5 -30 -11 -2 -7 6 -10 22
-7 29 6 34 -12 5 -20 -32 -8 -14 -40 19 -33 25 6 25 6 6 -9 -13 -10 -19 -26
-18 -43 2 -23 2 -24 -6 -7 -12 28 -74 28 -79 1 -3 -14 0 -17 12 -13 10 4 16 1
16 -8 0 -18 -26 -20 -33 -2 -4 9 -8 8 -16 -3 -5 -8 -13 -12 -16 -8 -12 12 48
69 66 63 16 -6 36 11 26 21 -3 3 -31 -2 -63 -10 -37 -10 -62 -12 -68 -6 -5 5
-6 13 -2 17 4 4 11 1 16 -7 6 -9 10 -10 10 -3 0 6 6 13 13 16 6 2 4 3 -6 1
-14 -2 -16 2 -11 18 6 21 6 21 -17 -1 -12 -11 -27 -21 -32 -21 -5 0 -7 -7 -3
-15 3 -8 1 -15 -5 -15 -19 0 -21 31 -3 46 17 12 17 13 1 8 -13 -5 -16 -2 -11
10 3 9 1 16 -5 16 -6 0 -11 -6 -11 -14 0 -8 -6 -16 -12 -19 -10 -3 -10 -8 1
-21 8 -9 11 -20 7 -23 -4 -4 -11 -1 -15 6 -5 7 -14 10 -20 7 -6 -4 -9 -12 -6
-17 4 -5 -1 -9 -10 -9 -9 0 -13 4 -10 10 3 5 0 7 -7 5 -8 -3 -13 -18 -13 -33
1 -15 -2 -31 -6 -37 -3 -5 -11 -23 -17 -40 -6 -17 -11 -22 -11 -12 -1 21 -21
23 -21 2 0 -8 -4 -15 -10 -15 -13 0 -13 17 1 25 6 4 8 13 5 20 -3 8 3 16 12
18 15 4 15 5 1 6 -9 0 -29 -15 -44 -35 l-27 -35 -19 23 c-13 14 -23 18 -27 12
-9 -15 -71 -24 -66 -10 6 15 -33 39 -41 26 -3 -6 -18 -10 -33 -10 -21 0 -24 2
-12 10 8 5 11 10 5 10 -15 0 -37 -16 -35 -26 1 -5 -3 -10 -9 -12 -6 -2 -11 3
-11 12 0 9 -4 16 -10 16 -5 0 -10 -5 -10 -11 0 -5 -5 -7 -10 -4 -6 4 -8 15 -5
25 3 11 0 20 -11 24 -11 4 -14 13 -10 31 7 29 -13 34 -37 10 -13 -12 -15 -12
-20 5 -2 10 -15 20 -28 23 -21 4 -21 4 -3 6 16 1 21 8 21 32 0 25 -6 33 -29
41 -27 10 -28 11 -11 24 17 13 17 13 1 14 -20 0 -24 15 -8 25 15 9 12 32 -6
39 -12 4 -14 1 -9 -13 7 -24 -4 -32 -34 -24 -15 4 -20 11 -16 21 3 8 0 19 -7
24 -10 6 -10 10 2 19 13 9 12 10 -2 5 -21 -6 -23 5 -6 22 6 6 8 15 4 19 -6 7
-18 -6 -30 -32 -6 -13 -46 32 -46 51 0 8 5 14 10 14 6 0 10 4 10 10 0 5 -3 9
-7 9 -21 -3 -33 2 -33 15 0 14 -21 26 -43 26 -7 0 -4 -5 6 -11 23 -13 13 -29
-19 -29 -24 0 -33 14 -14 23 6 3 5 4 -2 3 -7 -2 -13 -11 -14 -22 -3 -50 -4
-52 -26 -47 l-23 5 23 -19 c25 -20 20 -33 -12 -33 -12 0 -29 -7 -38 -14 -20
-14 -24 -36 -8 -36 6 0 10 -14 10 -32 0 -25 -3 -29 -12 -20 -7 7 -26 11 -43
11 -16 -1 -22 -3 -13 -6 25 -6 22 -23 -3 -23 -11 0 -29 -5 -40 -11 -15 -7 -24
-7 -35 2 -11 9 -14 8 -15 -5 -2 -29 -4 -34 -11 -41 -8 -8 -31 32 -24 43 2 4
-7 15 -20 25 -19 14 -24 15 -24 4 0 -8 7 -18 16 -21 14 -5 16 -16 10 -61 -4
-35 -2 -55 4 -55 5 0 10 5 10 11 0 6 14 1 31 -11 16 -12 27 -25 23 -29 -4 -3
-9 0 -11 7 -3 6 -14 11 -26 11 -17 -1 -18 -2 -4 -6 9 -2 17 -13 17 -24 0 -20
-15 -26 -25 -9 -9 15 -25 12 -25 -5 0 -15 42 -31 57 -22 4 3 9 -6 9 -19 2 -24
2 -24 -25 -5 -35 24 -141 63 -141 51 0 -5 4 -12 10 -15 6 -3 10 -21 10 -40 0
-18 6 -40 13 -47 33 -36 7 -67 -28 -32 -15 15 -15 14 -9 -12 4 -16 11 -37 15
-46 6 -10 5 -19 -1 -23 -5 -3 -10 -1 -10 4 0 6 -6 11 -14 11 -7 0 -19 7 -26
15 -7 9 -19 14 -27 11 -7 -3 -13 1 -13 8 0 8 -7 16 -15 20 -18 6 -19 1 -5 -25
7 -13 8 -25 1 -37 -9 -15 -10 -15 -11 -1 0 9 -7 19 -15 23 -8 3 -15 13 -15 23
-1 16 -2 16 -10 2 -13 -22 -62 -13 -57 10 2 9 9 15 15 14 15 -4 15 10 1 24
-13 13 -4 33 17 33 8 0 14 4 14 9 0 4 -11 6 -25 3 -22 -4 -30 -18 -26 -44 0
-5 -4 -8 -10 -8 -7 0 -9 10 -5 26 6 22 4 25 -14 19 -16 -5 -20 -2 -20 14 0 17
-6 21 -35 21 -28 0 -38 -5 -45 -22 -9 -22 -9 -22 -9 3 -1 15 6 32 14 39 12 10
15 10 15 -1 0 -11 2 -11 10 1 8 12 11 13 19 1 7 -11 15 -10 45 4 20 10 36 21
36 26 0 13 -6 11 -25 -7 -9 -9 -23 -13 -32 -9 -10 3 -13 9 -8 13 6 4 11 20 13
36 3 26 2 27 -13 12 -9 -9 -20 -16 -25 -16 -5 0 -7 -7 -3 -16 5 -13 2 -15 -15
-9 -16 4 -22 2 -22 -9 0 -9 -12 -16 -32 -18 -29 -3 -33 -6 -30 -30 2 -16 -1
-28 -8 -28 -6 0 -10 -8 -9 -17 2 -10 -6 -33 -18 -51 -17 -27 -22 -30 -27 -16
-4 9 -9 14 -13 11 -3 -4 -12 1 -20 11 -12 16 -13 16 -7 0 3 -10 1 -18 -5 -18
-10 0 -16 21 -12 43 0 4 -4 7 -10 7 -16 0 -32 22 -86 120 -25 47 -49 87 -53
90 -6 5 -131 215 -273 460 -210 364 -282 490 -325 565 -24 44 -52 91 -61 105
-24 37 -36 58 -79 134 -38 66 -52 72 -59 26 -1 -8 -8 -19 -16 -25 -12 -8 -9
-21 19 -75 18 -36 36 -72 40 -80 4 -8 17 -31 29 -50 19 -31 230 -394 276 -476
9 -17 36 -62 58 -99 23 -37 41 -69 41 -71 0 -3 11 -21 23 -42 13 -20 35 -57
49 -82 14 -25 66 -118 117 -208 50 -90 91 -170 91 -178 0 -9 4 -13 9 -10 5 3
11 -3 14 -14 3 -13 1 -18 -6 -13 -7 3 -5 -2 4 -13 9 -10 22 -29 28 -41 11 -21
10 -21 -14 -9 -14 7 -41 12 -60 10 -31 -2 -34 0 -25 16 15 28 12 48 -8 46 -21
-1 -34 -18 -20 -27 5 -3 8 -15 5 -25 -5 -18 -5 -17 -12 2 -4 12 -18 27 -31 33
-13 6 -24 15 -24 21 0 7 7 4 16 -5 19 -19 32 -12 16 8 -14 17 -6 27 16 20 13
-3 13 -1 -2 11 -26 21 -30 20 -45 -7 -7 -12 -25 -28 -42 -36 -16 -7 -27 -17
-23 -22 3 -5 10 -7 15 -4 5 4 9 2 9 -4 0 -18 -18 -21 -33 -6 -9 8 -19 15 -23
15 -5 0 -3 -5 4 -12 20 -20 14 -37 -11 -30 l-22 5 20 -23 20 -23 -25 8 c-14 4
-31 13 -39 19 -26 21 5 -27 38 -58 23 -22 31 -25 31 -14 0 11 12 17 43 20 23
3 46 3 51 0 9 -5 -62 -72 -76 -72 -12 0 -10 18 4 22 6 2 -18 9 -55 14 l-66 10
6 -25 c3 -15 13 -32 22 -39 24 -19 1 -29 -59 -25 -40 2 -50 -1 -50 -13 0 -8
15 -21 34 -29 19 -8 41 -22 50 -30 18 -19 36 -12 36 14 0 12 9 20 25 23 25 5
35 -7 13 -15 -20 -7 -2 -20 27 -19 15 0 25 -6 25 -15 0 -10 -7 -14 -20 -10
-11 3 -20 1 -20 -5 0 -6 -6 -8 -14 -5 -14 6 -146 -11 -155 -19 -2 -2 10 -19
28 -39 33 -38 37 -51 21 -75 -5 -9 -5 -17 0 -20 6 -3 13 -20 16 -38 5 -26 3
-32 -10 -32 -10 0 -14 -5 -11 -10 4 -6 1 -17 -5 -25 -7 -8 -10 -22 -6 -30 3
-8 1 -15 -4 -15 -6 0 -19 -9 -31 -21 -17 -17 -25 -19 -44 -11 -19 9 -24 8 -28
-7 -2 -10 2 -26 9 -36 16 -22 19 -59 4 -50 -5 3 -10 2 -10 -4 0 -5 -16 -15
-34 -22 -19 -7 -32 -17 -29 -22 3 -6 1 -7 -6 -3 -6 4 -9 11 -6 16 3 5 -5 16
-17 24 -17 12 -19 16 -7 21 11 4 15 21 16 57 0 29 6 54 13 58 7 4 9 13 5 19
-4 7 -1 18 5 26 7 8 9 24 5 36 -7 20 -8 21 -17 5 -7 -12 -17 -16 -34 -12 -18
5 -22 3 -18 -9 8 -19 -3 -19 -23 1 -14 13 -14 16 0 27 8 7 17 27 19 44 4 30 3
32 -19 27 -22 -6 -23 -4 -17 20 5 22 2 27 -21 36 -37 14 -40 13 -54 -16 -9
-21 -14 -24 -26 -14 -17 14 -9 34 11 26 8 -3 14 -1 14 3 0 5 -7 12 -16 15 -8
3 -12 11 -9 17 4 6 13 8 20 5 13 -5 25 34 25 82 0 25 -1 25 -15 6 -8 -10 -15
-15 -15 -10 0 5 -9 1 -21 -10 -12 -10 -31 -19 -44 -19 -12 -1 -30 -9 -40 -19
-17 -17 -19 -17 -28 -1 -6 12 -5 20 4 26 8 5 10 9 6 9 -5 0 -1 7 7 16 15 14
17 14 32 -1 15 -14 17 -14 30 2 7 10 14 28 14 41 0 28 -26 29 -54 3 -34 -31
-60 -31 -64 2 -2 15 1 27 6 27 6 0 12 17 14 38 3 33 1 38 -15 34 -9 -2 -20 -8
-23 -13 -9 -15 -41 -10 -48 7 -3 8 -2 12 4 9 6 -3 10 3 10 14 0 10 6 22 13 24
9 4 8 8 -3 16 -8 6 -10 11 -5 11 6 0 2 5 -7 11 -10 5 -18 19 -18 29 0 20 -15
25 -44 14 -11 -4 -13 -10 -7 -18 6 -7 6 -17 1 -26 -7 -12 -12 -12 -22 -2 -16
16 -28 15 -28 -3 0 -8 -7 -15 -15 -15 -8 0 -15 -6 -15 -14 0 -8 -6 -17 -12
-19 -10 -4 -10 -7 -1 -14 12 -9 3 -33 -13 -36 -5 -1 -8 -8 -8 -14 1 -7 -2 -13
-7 -13 -5 0 -9 6 -9 14 0 23 -28 27 -43 6 -8 -11 -17 -17 -20 -13 -4 3 -7 2
-7 -4 0 -5 3 -13 7 -17 4 -3 8 -16 10 -28 2 -12 8 -25 14 -29 8 -5 8 -8 0 -13
-6 -4 -18 2 -28 14 -23 27 -31 25 -25 -5 5 -29 -11 -33 -35 -10 -19 20 -28 13
-15 -12 6 -10 12 -33 15 -51 3 -18 11 -39 17 -47 6 -8 9 -18 6 -24 -4 -5 6
-19 21 -32 l28 -22 -30 7 c-16 4 -49 20 -72 36 -40 27 -43 28 -43 10 0 -11 5
-29 12 -40 15 -23 4 -37 -16 -21 -13 11 -16 8 -22 -13 -3 -14 -4 -31 -1 -38 3
-7 6 -3 6 10 1 14 5 21 12 16 6 -3 9 -14 6 -24 -3 -14 0 -17 12 -13 14 4 14 3
1 -6 -8 -6 -23 -11 -33 -11 -14 0 -17 -5 -12 -20 4 -12 2 -20 -5 -20 -7 0 -10
-8 -7 -20 3 -13 0 -20 -9 -20 -8 0 -14 4 -14 9 0 16 -31 21 -46 7 -30 -30 5
-118 55 -139 l26 -10 -30 -7 c-16 -3 -36 -2 -42 3 -18 13 -27 -15 -19 -61 3
-20 7 -55 9 -77 2 -22 7 -52 11 -67 7 -24 5 -28 -11 -28 -11 0 -29 9 -41 20
-25 24 -32 25 -32 5 0 -20 -6 -19 -38 4 -25 17 -111 61 -120 61 -9 0 12 -68
30 -98 13 -20 18 -41 14 -56 -5 -19 -1 -25 17 -30 32 -8 39 -7 32 4 -3 6 -1
10 4 10 6 0 11 -4 11 -10 0 -5 6 -10 14 -10 11 0 36 -46 36 -66 0 -11 -39 -2
-50 11 -16 19 -34 20 -27 1 10 -25 -16 -37 -51 -24 -18 7 -32 16 -32 20 0 4
-7 8 -15 8 -19 0 -16 -40 5 -66 13 -16 13 -17 -2 -11 -15 5 -16 4 -5 -13 6
-11 16 -20 22 -20 5 0 18 -14 27 -30 9 -17 25 -30 35 -30 13 0 15 -2 5 -9 -17
-10 -83 20 -77 36 6 17 -18 33 -42 27 -11 -3 -27 1 -36 10 -8 9 -22 13 -30 10
-9 -3 -21 4 -30 16 -9 12 -20 19 -26 15 -6 -3 -11 0 -11 7 0 8 -9 21 -20 31
-11 9 -20 14 -20 11 0 -4 -7 -1 -15 6 -9 7 -13 21 -10 31 4 12 -1 19 -15 24
-15 5 -19 12 -14 31 4 15 2 24 -6 24 -21 0 0 18 28 25 24 5 28 11 30 42 2 29
0 34 -10 25 -9 -7 -18 -6 -32 4 -19 14 -19 14 3 14 15 0 20 4 14 12 -4 7 -6
25 -4 40 3 32 -5 35 -31 11 -14 -13 -21 -14 -30 -5 -9 9 -9 12 1 12 9 0 11 8
7 23 -5 21 -2 23 22 20 29 -5 72 20 59 33 -4 5 -17 2 -29 -5 -28 -18 -40 -1
-23 32 14 27 13 27 -13 21 -15 -3 -35 -8 -44 -11 -12 -3 -18 1 -18 11 0 9 5
16 11 16 6 0 9 6 6 14 -3 8 3 22 14 32 10 9 19 13 19 8 0 -5 5 -2 10 6 5 8 10
24 10 35 0 16 -4 15 -20 -10 -19 -30 -95 -73 -107 -61 -4 3 1 6 10 6 10 0 14
6 11 14 -3 7 6 22 19 32 13 11 27 32 31 48 6 25 5 28 -7 18 -17 -14 -37 2 -37
30 0 23 -9 23 -26 1 -13 -16 -14 -15 -10 12 2 17 5 34 5 39 1 4 8 6 15 3 10
-4 13 -1 9 9 -3 8 -12 13 -19 10 -7 -3 -16 0 -20 6 -4 6 -12 -4 -18 -23 -7
-19 -9 -36 -6 -39 3 -3 6 -14 7 -25 1 -19 1 -19 -11 -2 -16 21 -26 22 -26 3 0
-8 -7 -17 -15 -20 -12 -4 -13 -10 -6 -24 6 -11 6 -24 1 -32 -7 -12 -10 -12
-16 3 -8 22 -27 11 -19 -12 9 -28 -4 -54 -21 -40 -15 12 -38 3 -29 -12 4 -5
-3 -9 -15 -9 -12 0 -19 -4 -16 -8 6 -10 -48 -62 -65 -62 -7 0 -10 -3 -6 -6 3
-3 -9 -21 -26 -39 -18 -18 -45 -50 -62 -71 -16 -21 -48 -56 -71 -78 -22 -23
-44 -49 -47 -58 -3 -10 -22 -24 -40 -32 -19 -8 -38 -19 -41 -25 -4 -6 -19 -11
-34 -11 -15 -1 -38 -7 -52 -15 -35 -20 -120 -20 -120 0 0 19 -9 19 -34 0 -12
-9 -42 -15 -73 -15 -29 0 -53 -4 -53 -10 0 -5 -18 -10 -40 -10 -29 0 -40 -4
-40 -15 0 -11 -12 -15 -49 -15 -28 0 -52 -4 -56 -9 -6 -11 -108 -44 -140 -46
-39 -3 -46 -5 -41 -13 2 -4 -4 -9 -15 -9 -10 -1 -19 2 -19 8 0 5 -36 9 -80 9
-47 0 -80 -4 -80 -10 0 -6 -28 -10 -63 -10 -48 0 -68 -5 -83 -19 -12 -10 -36
-22 -54 -26 -48 -11 -161 -70 -196 -102 -7 -7 -16 -13 -21 -13 -4 0 -14 -9
-21 -20 -7 -11 -19 -20 -27 -20 -8 0 -15 -9 -15 -20 0 -11 -6 -20 -12 -20 -7
0 -22 -18 -32 -40 -11 -22 -23 -40 -28 -40 -5 0 -7 -4 -4 -9 3 -4 -3 -16 -14
-26 -11 -10 -20 -24 -20 -30 0 -7 -11 -29 -25 -49 -14 -20 -25 -45 -25 -55 0
-10 -25 -44 -56 -76 -31 -32 -57 -65 -59 -74 -1 -8 -22 -30 -46 -48 -37 -26
-53 -32 -101 -32 -31 -1 -58 3 -60 8 -2 5 -20 18 -40 28 -50 27 -118 89 -118
108 0 8 -6 15 -12 15 -7 0 -22 18 -32 40 -11 22 -23 40 -28 40 -4 0 -8 6 -8
13 0 7 -9 18 -20 25 -11 7 -20 19 -20 27 0 8 -9 15 -20 15 -11 0 -20 7 -20 15
0 20 -18 50 -53 89 -15 17 -27 40 -27 52 0 14 -12 27 -40 40 -22 10 -40 25
-40 32 0 7 -15 12 -40 12 -22 0 -40 4 -40 9 0 5 -38 12 -83 16 -68 6 -90 4
-115 -9 -17 -9 -39 -16 -50 -16 -18 0 -112 -82 -112 -97 0 -5 -13 -21 -28 -38
-15 -16 -37 -46 -48 -65 -10 -19 -32 -52 -48 -73 -16 -21 -30 -46 -30 -55 -1
-9 -8 -30 -16 -45 -10 -20 -16 -24 -22 -15 -5 9 -8 7 -8 -8 0 -11 -9 -29 -20
-39 -11 -10 -20 -26 -20 -36 0 -32 -103 -124 -154 -139 -25 -7 -46 -17 -46
-21 0 -5 -18 -9 -40 -9 -22 0 -40 -5 -40 -10 0 -7 -6 -7 -19 0 -11 5 -27 10
-36 10 -9 0 -22 6 -29 13 -8 6 -24 19 -36 27 -12 8 -28 20 -34 25 -46 39 -112
67 -166 70 -68 3 -72 4 -65 15 10 17 -285 12 -301 -5 -7 -7 -35 -15 -63 -19
-28 -4 -51 -11 -51 -15 0 -5 -16 -16 -36 -26 -19 -9 -38 -23 -41 -31 -3 -8
-11 -14 -18 -14 -6 0 -45 -32 -86 -71 -41 -40 -95 -83 -122 -96 -26 -13 -59
-35 -74 -49 -31 -29 -77 -31 -131 -7 -20 9 -59 17 -87 18 -33 0 -49 5 -48 13
2 8 -11 12 -37 12 -29 0 -40 4 -40 15 0 11 -11 15 -40 15 -29 0 -40 -4 -40
-15 0 -18 0 -18 -41 -1 -19 8 -71 17 -116 21 -46 4 -83 11 -83 16 0 5 -18 9
-40 9 -29 0 -40 4 -40 15 0 12 -16 15 -80 15 -79 0 -80 0 -80 25 0 25 -1 25
-80 25 -64 0 -80 3 -80 15 0 11 -12 15 -42 17 l-43 1 45 7 45 7 -42 1 c-31 2
-43 6 -43 17 0 9 -9 15 -23 15 -13 0 -29 6 -36 12 -11 10 -14 10 -18 1 -7 -20
-23 -15 -45 12 -16 21 -28 25 -69 25 -37 0 -49 4 -49 15 0 11 -11 15 -39 15
-22 0 -41 5 -43 11 -2 7 -59 13 -161 17 -86 2 -157 9 -157 13 0 5 -18 9 -40 9
l-40 0 0 -3705 0 -3705 12800 0 12800 0 0 6720 0 6720 -40 0 c-29 0 -40 -4
-40 -15z m-17203 -2737 c-3 -8 -6 -5 -6 6 -1 11 2 17 5 13 3 -3 4 -12 1 -19z
m-2 -48 c-3 -5 -12 -10 -18 -10 -7 0 -6 4 3 10 19 12 23 12 15 0z m5927 -894
c5 -8 8 -7 8 2 0 10 310 12 1561 12 l1561 -1 -6 -24 c-4 -14 -2 -25 4 -25 5 0
10 -5 10 -12 0 -6 7 -20 17 -30 9 -10 13 -21 9 -26 -4 -4 -16 3 -25 15 l-18
22 1 -27 c1 -25 4 -27 34 -24 19 3 32 0 32 -7 0 -6 -9 -11 -19 -11 -11 0 -27
-3 -36 -6 -11 -5 -18 0 -22 15 -6 23 -23 29 -24 9 0 -10 -2 -10 -6 0 -7 17
-33 15 -33 -3 0 -9 7 -18 15 -21 8 -4 15 -16 15 -28 -1 -20 -2 -19 -25 7 -21
24 -29 27 -65 21 -24 -4 -40 -12 -40 -21 0 -7 -11 -18 -24 -22 -13 -5 -26 -18
-30 -27 -6 -16 -8 -16 -16 -4 -7 11 -12 12 -21 3 -9 -9 -3 -13 25 -18 65 -13
36 -35 -57 -44 -5 -1 -6 -5 -2 -10 8 -14 -28 -80 -43 -81 -9 0 -11 7 -7 19 3
11 0 23 -7 27 -9 6 -5 10 12 14 18 5 24 12 23 28 -2 12 1 21 5 21 21 -4 31 3
25 17 -3 8 -12 13 -19 10 -10 -4 -11 1 -4 20 12 32 13 44 1 44 -5 0 -12 -27
-16 -60 -4 -33 -11 -60 -16 -60 -5 0 -9 6 -9 13 0 10 -19 13 -77 12 -120 -3
-143 -14 -142 -70 l0 -30 13 25 c8 14 12 28 10 31 -3 6 37 22 61 24 6 0 16 4
23 9 7 4 21 5 30 1 15 -6 14 -8 -8 -20 -14 -8 -34 -12 -44 -8 -15 4 -18 2 -11
-13 4 -11 9 -26 12 -35 3 -11 12 -15 24 -12 26 7 24 19 -3 27 -22 7 -22 7 -3
16 11 5 27 9 35 9 10 -1 11 -2 2 -6 -17 -7 -5 -23 17 -23 10 0 25 -7 32 -16
12 -15 10 -16 -18 -10 -18 4 -34 3 -38 -3 -3 -6 -1 -11 4 -11 6 0 11 -11 11
-25 0 -15 -6 -25 -14 -25 -23 0 -28 18 -9 29 16 8 14 10 -10 16 -15 4 -31 5
-34 1 -4 -3 2 -6 13 -6 16 0 16 -2 4 -10 -12 -7 -12 -12 -2 -22 19 -19 14 -35
-17 -51 -33 -17 -41 -9 -41 39 0 24 -14 32 -25 14 -3 -5 -15 -10 -26 -10 -10
0 -19 5 -19 10 0 6 -9 10 -19 10 -11 0 -22 6 -24 13 -3 6 -6 -7 -6 -30 -1 -24
-5 -43 -11 -43 -10 0 -12 6 -14 42 -1 24 -20 22 -21 -2 0 -11 -4 -19 -9 -19
-5 0 -13 -5 -17 -13 -7 -10 -9 -10 -9 2 0 9 5 21 11 27 8 8 5 19 -14 39 -22
24 -28 26 -42 14 -14 -12 -18 -11 -26 1 -7 12 -9 11 -9 -3 0 -22 -20 -34 -30
-18 -4 7 -13 9 -20 5 -10 -6 -9 -11 5 -22 16 -11 17 -13 3 -13 -9 0 -19 4 -22
9 -3 5 -15 7 -26 4 -14 -4 -20 0 -20 11 0 9 -4 16 -10 16 -5 0 -10 -7 -10 -15
0 -8 -4 -15 -10 -15 -5 0 -10 -7 -10 -16 0 -10 6 -14 15 -10 9 3 15 0 15 -9 0
-8 -6 -15 -14 -15 -8 0 -16 -6 -19 -12 -2 -7 -3 -5 -2 5 4 25 -24 21 -35 -5
-6 -17 -9 -19 -9 -6 -1 20 -37 42 -56 34 -18 -6 -76 12 -90 29 -5 6 -20 14
-33 17 -23 6 -31 -7 -35 -59 -1 -17 -8 -23 -24 -23 -13 0 -23 5 -23 10 0 6 10
10 21 10 18 0 19 2 9 15 -8 9 -10 27 -6 46 5 25 2 32 -14 36 -11 3 -20 11 -20
18 0 7 -7 18 -15 25 -25 21 -19 -26 8 -51 12 -12 16 -19 10 -15 -9 5 -13 -2
-13 -23 0 -17 -4 -31 -10 -31 -5 0 -10 14 -10 31 0 27 -2 30 -15 19 -9 -7 -19
-9 -23 -5 -4 4 -1 10 6 12 15 6 15 30 1 72 -14 40 -26 40 -22 -1 2 -18 0 -27
-3 -20 -8 16 -29 15 -44 -3 -16 -20 -30 -19 -30 1 0 13 -3 14 -15 4 -8 -6 -22
-10 -31 -8 -16 3 -16 4 1 21 12 12 27 17 44 13 14 -3 20 -3 13 0 -6 3 -10 10
-7 15 4 5 -1 6 -9 3 -9 -3 -16 -2 -16 4 0 14 25 22 67 22 55 0 34 9 -25 11
-52 2 -60 7 -43 24 5 6 7 22 4 36 -5 26 -6 26 -31 13 -37 -19 -52 -17 -52 5 0
11 6 21 13 24 6 2 9 8 5 12 -4 5 -17 -4 -29 -19 -17 -21 -24 -24 -35 -15 -9 7
-11 21 -8 35 6 24 5 24 -20 12 -25 -11 -29 -9 -49 14 -28 33 -62 44 -70 23 -4
-8 -13 -12 -22 -9 -10 4 -15 0 -15 -10 0 -9 -4 -16 -10 -16 -5 0 -10 5 -10 12
0 6 -7 3 -15 -8 -14 -18 -16 -17 -19 6 0 6 -4 10 -8 10 -5 0 -12 0 -18 0 -5 0
-10 -10 -10 -22 0 -20 -1 -20 -18 -5 -27 25 -46 22 -32 -4 10 -17 8 -21 -10
-26 -15 -4 -20 -11 -17 -24 4 -14 0 -19 -14 -19 -10 0 -19 -5 -19 -11 0 -8 -4
-8 -12 -2 -8 6 -29 6 -56 1 -35 -8 -42 -13 -37 -26 4 -9 8 -29 9 -44 2 -32
-14 -36 -39 -12 -12 13 -19 14 -28 5 -6 -6 -8 -11 -5 -11 3 0 0 -25 -7 -55 -8
-32 -9 -57 -4 -61 5 -3 9 -14 9 -25 0 -19 -1 -19 -16 -5 -8 9 -21 16 -27 16
-7 0 -4 -5 6 -11 27 -16 21 -30 -9 -19 -33 13 -34 13 -28 -5 7 -17 -31 -22
-41 -5 -10 16 -45 12 -45 -5 0 -19 -24 -20 -38 -2 -9 10 -7 19 4 35 18 26 11
42 -18 42 -20 0 -20 -1 -4 -19 15 -17 15 -19 0 -31 -13 -12 -17 -11 -25 1 -5
8 -9 17 -9 22 0 9 -110 10 -110 1 0 -4 8 -13 18 -21 15 -13 13 -14 -18 -9 -24
4 -30 3 -20 -3 12 -8 12 -13 -4 -30 -22 -25 -36 -27 -36 -6 0 11 -7 13 -29 9
-16 -4 -32 -1 -35 5 -5 7 2 11 16 12 22 0 22 1 3 9 -35 15 -65 12 -65 -7 0
-15 2 -16 10 -3 14 23 22 5 15 -34 -8 -41 -25 -48 -25 -10 0 14 -4 23 -10 19
-5 -3 -10 -13 -10 -21 0 -8 -10 -25 -21 -37 -19 -20 -20 -20 -12 -2 21 42 23
86 6 103 -13 13 -15 14 -11 2 3 -11 -9 -18 -51 -26 -57 -12 -81 -9 -81 7 0 5
6 9 13 9 6 0 13 14 14 30 1 17 -2 30 -7 30 -6 0 -10 -9 -10 -20 0 -16 -6 -19
-29 -16 -15 2 -34 7 -41 11 -7 4 -16 2 -21 -6 -11 -19 -19 -7 -12 19 4 15 13
22 30 22 25 0 26 11 8 68 -8 25 -25 30 -25 7 0 -18 -45 -21 -56 -3 -5 7 -10 4
-15 -10 -11 -28 -33 -29 -24 -2 4 11 3 20 -2 19 -21 -4 -33 2 -33 16 0 9 -6
12 -15 9 -8 -4 -12 -10 -9 -15 6 -10 -7 -12 -29 -3 -12 4 -12 10 -3 30 6 13
15 24 19 24 5 0 2 7 -7 15 -8 9 -13 22 -10 30 5 11 -2 13 -33 8 -21 -3 -41
-10 -44 -16 -4 -5 -9 -4 -14 3 -4 6 -14 9 -22 6 -9 -4 -17 1 -20 13 -3 11 -11
22 -18 25 -9 3 -11 -2 -7 -16 4 -18 3 -19 -17 -9 -11 7 -21 16 -21 21 0 6 -4
10 -10 10 -5 0 -10 -7 -10 -15 0 -8 -4 -15 -10 -15 -5 0 -10 5 -10 12 0 6 -3
8 -7 5 -14 -15 27 -44 55 -39 25 5 26 4 10 -11 -9 -10 -25 -16 -35 -15 -10 0
-31 0 -47 0 -25 -2 -27 -5 -22 -27 4 -14 2 -25 -4 -25 -5 0 -10 7 -10 15 0 7
-6 18 -13 22 -7 4 -32 40 -56 78 -25 39 -51 81 -60 95 -9 14 -23 42 -33 62
l-17 38 237 -2 c162 0 239 -4 244 -12z m3258 -1 c9 -11 7 -16 -9 -25 -25 -13
-27 -30 -4 -30 13 0 14 -3 5 -12 -9 -9 -15 -8 -25 7 -8 10 -19 15 -25 11 -17
-10 -61 41 -47 55 11 12 95 7 105 -6z m148 -9 c-7 -8 -15 -12 -17 -11 -5 6 10
25 20 25 5 0 4 -6 -3 -14z m-108 -51 c0 -2 -6 -5 -13 -8 -8 -3 -14 1 -14 8 0
7 6 11 14 8 7 -3 13 -6 13 -8z m-7291 -45 c0 -10 -3 -8 -9 5 -12 27 -12 43 0
25 5 -8 9 -22 9 -30z m2886 -32 c6 -4 2 -8 -7 -8 -10 0 -18 7 -18 17 0 9 3 12
8 7 4 -5 12 -12 17 -16z m95 7 c0 -8 -4 -15 -10 -15 -5 0 -10 7 -10 15 0 8 5
15 10 15 6 0 10 -7 10 -15z m2420 1 c0 -8 -6 -16 -14 -19 -10 -4 -12 0 -9 14
6 22 23 26 23 5z m-5419 -6 c13 0 11 -47 -1 -55 -8 -5 -7 -11 1 -21 9 -11 7
-14 -9 -14 -15 0 -20 5 -16 15 4 8 1 15 -5 15 -6 0 -11 16 -11 36 0 29 3 35
16 30 9 -3 20 -6 25 -6z m41 -35 c-2 -14 -8 -28 -13 -31 -10 -6 -12 39 -2 49
13 14 20 6 15 -18z m2998 15 c0 -5 -2 -10 -4 -10 -3 0 -8 5 -11 10 -3 6 -1 10
4 10 6 0 11 -4 11 -10z m4167 2 c7 -4 9 -13 5 -19 -6 -9 -11 -6 -20 7 -13 21
-6 26 15 12z m-6024 -14 c-4 -7 -6 -21 -5 -30 4 -22 -21 -24 -38 -3 -11 13
-10 18 6 30 24 18 48 20 37 3z m5842 2 c3 -5 -3 -10 -15 -10 -12 0 -18 5 -15
10 3 6 10 10 15 10 5 0 12 -4 15 -10z m-7145 -20 c0 -5 -5 -10 -11 -10 -5 0
-7 5 -4 10 3 6 8 10 11 10 2 0 4 -4 4 -10z m40 1 c0 -6 -4 -13 -10 -16 -5 -3
-10 1 -10 9 0 9 5 16 10 16 6 0 10 -4 10 -9z m25 -31 c3 -5 1 -10 -4 -10 -6 0
-11 5 -11 10 0 6 2 10 4 10 3 0 8 -4 11 -10z m7132 -16 c-1 -2 -13 -1 -26 3
-16 4 -19 8 -10 14 12 7 45 -9 36 -17z m-6967 1 c9 -10 9 -15 1 -15 -6 0 -11
5 -11 11 0 7 -10 9 -26 5 -17 -5 -23 -3 -19 4 9 15 41 12 55 -5z m2450 5 c12
-8 11 -10 -7 -10 -13 0 -23 5 -23 10 0 13 11 13 30 0z m4460 -20 c0 -11 -4
-20 -10 -20 -5 0 -10 9 -10 20 0 11 5 20 10 20 6 0 10 -9 10 -20z m-6860 -10
c0 -5 -4 -10 -9 -10 -6 0 -13 5 -16 10 -3 6 1 10 9 10 9 0 16 -4 16 -10z
m3312 -12 c-7 -7 -12 -8 -12 -2 0 14 12 26 19 19 2 -3 -1 -11 -7 -17z m1958
13 c0 -6 -4 -13 -10 -16 -5 -3 -10 1 -10 9 0 9 5 16 10 16 6 0 10 -4 10 -9z
m85 -1 c3 -5 1 -10 -4 -10 -6 0 -11 5 -11 10 0 6 2 10 4 10 3 0 8 -4 11 -10z
m50 0 c3 -5 1 -10 -4 -10 -6 0 -11 5 -11 10 0 6 2 10 4 10 3 0 8 -4 11 -10z
m-3298 -26 c-9 -9 -28 6 -21 18 4 6 10 6 17 -1 6 -6 8 -13 4 -17z m1240 -6
c-3 -7 -5 -2 -5 12 0 14 2 19 5 13 2 -7 2 -19 0 -25z m283 12 c0 -11 -4 -20
-10 -20 -5 0 -10 5 -10 10 0 6 -7 10 -16 10 -8 0 -12 5 -9 10 12 19 45 11 45
-10z m-3957 -9 c4 -16 -1 -19 -44 -18 -27 0 -49 4 -49 8 0 3 12 7 26 7 14 0
31 5 37 11 16 16 24 14 30 -8z m150 -16 c-3 -8 -12 -15 -19 -15 -12 0 -12 4
-4 20 12 23 32 18 23 -5z m1114 9 c-3 -3 -12 -4 -19 -1 -8 3 -5 6 6 6 11 1 17
-2 13 -5z m5813 -4 c0 -5 -4 -10 -10 -10 -5 0 -7 -13 -3 -32 4 -22 3 -29 -6
-24 -6 4 -14 0 -17 -8 -8 -20 -24 -21 -24 -1 0 8 4 15 9 15 5 0 15 16 21 35
11 32 30 48 30 25z m-6770 -17 c0 -18 -24 -44 -37 -39 -11 5 -14 1 -11 -11 4
-16 -1 -18 -34 -15 -38 4 -44 22 -7 22 10 0 19 5 19 10 0 6 9 10 20 10 18 0
25 10 21 32 0 4 6 5 14 2 8 -4 15 -8 15 -11z m-266 -14 c-6 -11 -24 -2 -24 11
0 5 7 7 15 4 8 -4 12 -10 9 -15z m1287 -2 c-10 -9 -11 -8 -5 6 3 10 9 15 12
12 3 -3 0 -11 -7 -18z m-1431 9 c0 -3 -4 -8 -10 -11 -5 -3 -10 -1 -10 4 0 6 5
11 10 11 6 0 10 -2 10 -4z m1360 -6 c0 -13 -11 -13 -30 0 -12 8 -11 10 8 10
12 0 22 -4 22 -10z m2895 -10 c3 -5 -1 -10 -9 -10 -9 0 -16 5 -16 10 0 6 4 10
9 10 6 0 13 -4 16 -10z m-465 -21 c0 -5 -4 -9 -10 -9 -5 0 -10 7 -10 16 0 8 5
12 10 9 6 -3 10 -10 10 -16z m510 12 c0 -5 -7 -11 -15 -15 -15 -5 -20 5 -8 17
9 10 23 9 23 -2z m137 -33 c-3 -8 -6 -5 -6 6 -1 11 2 17 5 13 3 -3 4 -12 1
-19z m1440 0 c-3 -8 -6 -5 -6 6 -1 11 2 17 5 13 3 -3 4 -12 1 -19z m-5763 -9
c-32 -13 -50 -9 -24 5 14 7 29 10 34 8 5 -3 1 -9 -10 -13z m1236 -4 c0 -12
-19 -12 -23 0 -4 9 -1 12 9 8 7 -3 14 -7 14 -8z m500 5 c0 -5 -4 -10 -10 -10
-5 0 -10 5 -10 10 0 6 5 10 10 10 6 0 10 -4 10 -10z m2513 -10 c-3 -12 -8 -19
-11 -16 -5 6 5 36 12 36 2 0 2 -9 -1 -20z m-2986 -12 c-3 -8 -6 -5 -6 6 -1 11
2 17 5 13 3 -3 4 -12 1 -19z m5788 12 c-3 -5 -12 -10 -18 -10 -7 0 -6 4 3 10
19 12 23 12 15 0z m-6095 -10 c0 -5 -4 -10 -9 -10 -6 0 -13 5 -16 10 -3 6 1
10 9 10 9 0 16 -4 16 -10z m92 -12 c-6 -6 -15 -8 -19 -4 -4 4 -1 11 7 16 19
12 27 3 12 -12z m-136 -13 c1 -15 -3 -25 -12 -25 -17 0 -19 36 -1 43 6 3 12 6
12 6 0 1 1 -10 1 -24z m58 1 c-6 -15 -24 -23 -24 -11 0 8 24 34 28 30 1 -1 0
-10 -4 -19z m5936 20 c0 -3 -4 -8 -10 -11 -5 -3 -10 -1 -10 4 0 6 5 11 10 11
6 0 10 -2 10 -4z m-983 -28 c-3 -8 -6 -5 -6 6 -1 11 2 17 5 13 3 -3 4 -12 1
-19z m573 5 c0 -10 -4 -14 -8 -8 -4 6 -11 13 -16 18 -5 4 -2 7 7 7 10 0 17 -8
17 -17z m175 -3 c0 -7 -6 -15 -12 -17 -8 -3 -13 4 -13 17 0 13 5 20 13 18 6
-3 12 -11 12 -18z m-135 -5 c0 -8 -4 -15 -10 -15 -5 0 -10 7 -10 15 0 8 5 15
10 15 6 0 10 -7 10 -15z m-6080 -5 c0 -5 -4 -10 -10 -10 -5 0 -10 5 -10 10 0
6 5 10 10 10 6 0 10 -4 10 -10z m6280 -13 c0 -7 -9 -13 -20 -13 -22 0 -27 12
-7 19 21 9 27 8 27 -6z m-6805 -7 c3 -5 1 -10 -4 -10 -6 0 -11 5 -11 10 0 6 2
10 4 10 3 0 8 -4 11 -10z m6485 0 c0 -5 -2 -10 -4 -10 -3 0 -8 5 -11 10 -3 6
-1 10 4 10 6 0 11 -4 11 -10z m57 4 c-3 -3 -12 -4 -19 -1 -8 3 -5 6 6 6 11 1
17 -2 13 -5z m-6017 -34 c0 -10 -7 -21 -16 -24 -14 -5 -15 -4 -4 9 7 8 10 22
6 30 -3 9 -2 13 4 10 6 -3 10 -14 10 -25z m452 3 c-5 -23 -7 -25 -10 -8 -2 11
-9 23 -16 27 -6 5 -3 8 10 8 18 0 20 -4 16 -27z m63 3 c0 -15 -4 -21 -9 -16
-5 5 -6 16 -3 24 9 22 12 20 12 -8z m45 20 c0 -2 -8 -10 -17 -17 -16 -13 -17
-12 -4 4 13 16 21 21 21 13z m-1115 -16 c14 -5 23 -14 20 -20 -3 -5 -1 -10 4
-10 20 0 11 -26 -9 -27 -11 -1 -20 2 -20 8 0 5 -6 9 -14 9 -9 0 -13 10 -12 25
0 14 2 25 3 25 1 0 14 -4 28 -10z m6305 -11 c0 -6 -4 -7 -10 -4 -5 3 -10 11
-10 16 0 6 5 7 10 4 6 -3 10 -11 10 -16z m-7390 -22 c0 -5 -4 -5 -10 -2 -5 3
-10 14 -10 23 0 15 2 15 10 2 5 -8 10 -19 10 -23z m30 12 c0 -6 -4 -7 -10 -4
-5 3 -10 11 -10 16 0 6 5 7 10 4 6 -3 10 -11 10 -16z m558 2 c3 -8 -1 -12 -9
-9 -7 2 -15 10 -17 17 -3 8 1 12 9 9 7 -2 15 -10 17 -17z m1212 10 c0 -6 -4
-13 -10 -16 -5 -3 -10 1 -10 9 0 9 5 16 10 16 6 0 10 -4 10 -9z m396 -19 c-18
-16 -18 -16 -6 6 6 13 14 21 18 18 3 -4 -2 -14 -12 -24z m3554 -6 c0 -30 -21
-49 -36 -32 -14 16 0 56 21 56 9 0 15 -9 15 -24z m1890 9 c7 -9 8 -15 2 -15
-5 0 -12 7 -16 15 -3 8 -4 15 -2 15 2 0 9 -7 16 -15z m-7146 -11 c4 -9 4 -19
2 -21 -8 -8 -26 8 -26 23 0 19 16 18 24 -2z m6492 5 c4 -8 0 -9 -15 -4 -14 4
-21 2 -21 -6 0 -7 -3 -10 -6 -6 -9 9 5 27 21 27 8 0 17 -5 21 -11z m-5206 -19
c0 -4 -11 -7 -25 -7 -14 0 -25 5 -25 12 0 8 9 10 25 7 14 -2 25 -8 25 -12z
m5813 0 c4 -16 0 -20 -16 -19 -12 0 -16 3 -9 6 6 2 12 11 12 19 0 20 7 17 13
-6z m-7603 -25 c0 -3 -9 -1 -20 5 -11 6 -18 15 -15 21 6 9 35 -12 35 -26z
m640 -8 c0 -5 -7 -4 -15 3 -8 7 -15 20 -15 29 1 13 3 13 15 -3 8 -11 15 -24
15 -29z m5283 29 c4 -10 1 -13 -9 -9 -15 6 -19 23 -5 23 5 0 11 -7 14 -14z
m1520 2 c3 -8 -5 -14 -20 -14 -19 -2 -22 1 -12 12 14 17 25 18 32 2z m-8248
-9 c11 -17 -1 -21 -15 -4 -8 9 -8 15 -2 15 6 0 14 -5 17 -11z m1368 4 c-7 -2
-13 -9 -13 -14 0 -4 7 -6 15 -3 8 4 15 1 15 -5 0 -11 -13 -15 -37 -12 -7 1
-17 -8 -23 -19 -12 -22 -30 -27 -30 -9 0 7 -7 17 -16 24 -16 11 -16 12 0 18
10 4 16 1 16 -8 0 -23 18 -18 36 10 9 14 24 25 33 24 10 0 11 -2 4 -6z m7250
-10 c-7 -2 -19 -2 -25 0 -7 3 -2 5 12 5 14 0 19 -2 13 -5z m-8648 -13 c3 -5
-1 -10 -10 -10 -9 0 -13 5 -10 10 3 6 8 10 10 10 2 0 7 -4 10 -10z m8015 -9
c0 -6 -4 -13 -10 -16 -5 -3 -10 1 -10 9 0 9 5 16 10 16 6 0 10 -4 10 -9z m390
-1 c0 -5 -5 -10 -11 -10 -5 0 -7 5 -4 10 3 6 8 10 11 10 2 0 4 -4 4 -10z
m-7330 -10 c0 -5 -4 -10 -10 -10 -5 0 -10 5 -10 10 0 6 5 10 10 10 6 0 10 -4
10 -10z m370 6 c0 -3 -4 -8 -10 -11 -5 -3 -10 -1 -10 4 0 6 5 11 10 11 6 0 10
-2 10 -4z m-420 -26 c0 -5 -7 -10 -16 -10 -8 0 -12 5 -9 10 3 6 10 10 16 10 5
0 9 -4 9 -10z m376 -5 c-3 -8 -1 -15 4 -15 6 0 10 -5 10 -11 0 -6 -7 -8 -16
-5 -9 4 -22 2 -29 -4 -9 -8 -15 -8 -20 0 -3 5 1 10 9 10 9 0 13 6 10 14 -3 8
2 16 13 19 10 3 20 5 22 6 2 0 1 -6 -3 -14z m69 -23 c-3 -3 -11 0 -18 7 -9 10
-8 11 6 5 10 -3 15 -9 12 -12z m43 9 c8 -5 12 -17 10 -27 -5 -18 -5 -18 -13 1
-5 11 -13 23 -19 27 -16 11 6 10 22 -1z m-428 -21 c0 -11 -4 -20 -9 -20 -5 0
-7 9 -4 20 3 11 7 20 9 20 2 0 4 -9 4 -20z m-35 -38 c-8 -8 -25 10 -19 20 4 6
9 5 15 -3 4 -7 6 -15 4 -17z m-995 14 c0 -3 -4 -8 -10 -11 -5 -3 -10 -1 -10 4
0 6 5 11 10 11 6 0 10 -2 10 -4z m42 -18 c-6 -6 -15 -8 -19 -4 -4 4 -1 11 7
16 19 12 27 3 12 -12z m688 6 c0 -8 -4 -12 -10 -9 -5 3 -10 10 -10 16 0 5 5 9
10 9 6 0 10 -7 10 -16z m537 -16 c-3 -7 -5 -2 -5 12 0 14 2 19 5 13 2 -7 2
-19 0 -25z m-1447 -12 c0 -3 -4 -8 -10 -11 -5 -3 -10 -1 -10 4 0 6 5 11 10 11
6 0 10 -2 10 -4z m1100 0 c0 -3 -4 -8 -10 -11 -5 -3 -10 -1 -10 4 0 6 5 11 10
11 6 0 10 -2 10 -4z m833 -76 c7 0 4 -7 -6 -14 -14 -11 -15 -16 -5 -22 8 -5 3
-10 -17 -16 -37 -10 -42 -4 -21 26 15 24 15 25 -1 20 -15 -5 -16 -4 -3 5 8 6
21 9 28 6 8 -3 19 -5 25 -5z m121 2 c7 -11 -42 -38 -51 -29 -3 4 2 14 13 22
22 17 31 18 38 7z m-1974 -6 c0 -3 -4 -8 -10 -11 -5 -3 -10 -1 -10 4 0 6 5 11
10 11 6 0 10 -2 10 -4z m310 -6 c0 -5 -4 -10 -10 -10 -5 0 -10 5 -10 10 0 6 5
10 10 10 6 0 10 -4 10 -10z m480 -28 c0 -5 -14 -9 -30 -9 -20 0 -26 3 -18 9
17 10 48 10 48 0z m1085 -42 c3 -6 -1 -7 -9 -4 -18 7 -21 14 -7 14 6 0 13 -4
16 -10z m-1599 -64 c9 -10 11 -17 4 -21 -13 -8 -42 14 -34 26 7 12 13 11 30
-5z m-144 -38 c-7 -7 -18 -5 -34 7 -12 10 -16 15 -7 12 9 -3 22 -1 30 4 17 10
26 -8 11 -23z m-45 -40 c-3 -8 -6 -5 -6 6 -1 11 2 17 5 13 3 -3 4 -12 1 -19z
m-1107 -104 c0 -3 -7 -1 -15 6 -8 7 -15 17 -15 22 0 5 7 3 15 -6 8 -8 15 -18
15 -22z m800 32 c0 -3 -4 -8 -10 -11 -5 -3 -10 -1 -10 4 0 6 5 11 10 11 6 0
10 -2 10 -4z m85 -66 c3 -5 1 -10 -4 -10 -6 0 -11 5 -11 10 0 6 2 10 4 10 3 0
8 -4 11 -10z m785 -10 c13 -8 13 -10 -2 -10 -9 0 -20 5 -23 10 -8 13 5 13 25
0z m-1812 -46 c15 -15 14 -18 -11 -36 -15 -11 -27 -26 -27 -34 0 -29 -17 -13
-18 17 0 23 3 29 14 25 10 -4 14 2 14 19 0 29 6 31 28 9z m-91 -36 c-3 -8 -6
-5 -6 6 -1 11 2 17 5 13 3 -3 4 -12 1 -19z m1863 -18 c0 -5 9 -10 20 -10 11 0
20 -4 20 -10 0 -5 -9 -10 -19 -10 -11 0 -23 -4 -26 -10 -3 -5 1 -10 10 -10 9
0 13 -4 10 -10 -3 -5 -12 -10 -19 -10 -16 0 -28 37 -15 45 4 3 6 12 2 20 -3 8
0 15 6 15 6 0 11 -4 11 -10z m-1582 -16 c-11 -11 -23 -14 -35 -9 -16 7 -15 9
7 15 40 12 45 11 28 -6z m689 3 c-5 -17 -33 -21 -40 -5 -3 9 4 15 20 16 16 1
23 -3 20 -11z m89 -34 c-2 -16 -5 -32 -5 -37 -1 -14 -31 15 -31 30 0 8 7 14
15 14 8 0 15 5 15 10 0 6 2 10 5 10 3 0 4 -12 1 -27z m-951 -3 c3 -5 1 -10 -4
-10 -6 0 -11 5 -11 10 0 6 2 10 4 10 3 0 8 -4 11 -10z m1800 1 c3 -5 1 -12 -5
-16 -5 -3 -10 1 -10 9 0 18 6 21 15 7z m77 0 c-12 -7 -62 -4 -62 5 0 2 17 4
38 4 23 0 32 -3 24 -9z m118 -1 c0 -5 -6 -10 -14 -10 -8 0 -18 5 -21 10 -3 6
3 10 14 10 12 0 21 -4 21 -10z m-1942 -31 c-10 -7 -10 -9 0 -9 6 0 12 -5 12
-11 0 -19 -33 -5 -36 15 -4 28 6 39 22 25 12 -10 12 -14 2 -20z m934 9 c-7 -7
-12 -8 -12 -2 0 14 12 26 19 19 2 -3 -1 -11 -7 -17z m-1082 -8 c0 -5 -2 -10
-4 -10 -3 0 -8 5 -11 10 -3 6 -1 10 4 10 6 0 11 -4 11 -10z m-30 -13 c0 -12
27 -37 40 -37 6 0 13 -7 16 -15 4 -8 11 -12 17 -8 6 4 8 0 4 -10 -4 -11 -2
-14 9 -10 10 4 14 -3 14 -28 -1 -29 -2 -31 -11 -15 -9 15 -13 16 -21 5 -7 -10
-8 -9 -4 6 7 24 -8 50 -23 41 -6 -4 -11 0 -11 10 0 16 -1 16 -19 0 -13 -12
-19 -13 -18 -4 1 35 -4 59 -12 54 -5 -3 -11 0 -14 7 -3 8 3 13 14 13 11 0 19
-4 19 -9z m1840 -7 c0 -5 -7 -7 -15 -4 -8 4 -12 10 -9 15 6 11 24 2 24 -11z
m155 0 c-3 -5 -11 -10 -16 -10 -6 0 -7 5 -4 10 3 6 11 10 16 10 6 0 7 -4 4
-10z m-1691 -29 c3 -5 -3 -11 -13 -14 -14 -3 -18 -1 -14 9 6 16 19 18 27 5z
m-352 -51 c14 -33 14 -40 2 -40 -17 0 -19 -17 -3 -22 7 -2 6 -8 -3 -16 -22
-18 -61 13 -53 41 11 35 29 77 35 77 3 0 13 -18 22 -40z m188 15 c0 -8 -4 -15
-8 -15 -5 0 -9 7 -9 15 0 8 4 15 9 15 4 0 8 -7 8 -15z m-124 -80 c0 -61 -1
-64 -25 -58 -26 7 -34 43 -14 65 8 9 13 24 9 33 -4 12 -1 15 12 13 13 -3 17
-14 18 -53z m34 51 c0 -3 -4 -8 -10 -11 -5 -3 -10 -1 -10 4 0 6 5 11 10 11 6
0 10 -2 10 -4z m130 -15 c0 -5 3 -18 6 -28 5 -16 4 -16 -10 1 -18 23 -20 36
-6 36 6 0 10 -4 10 -9z m180 -5 c0 -3 -4 -8 -10 -11 -5 -3 -10 -1 -10 4 0 6 5
11 10 11 6 0 10 -2 10 -4z m-296 -32 c9 -22 8 -23 -13 -17 -12 3 -17 11 -14
19 7 19 19 18 27 -2z m786 2 c0 -3 -4 -8 -10 -11 -5 -3 -10 -1 -10 4 0 6 5 11
10 11 6 0 10 -2 10 -4z m-920 -41 c6 -8 10 -18 7 -22 -3 -4 -1 -19 4 -32 8
-20 12 -22 22 -11 9 10 9 13 0 17 -7 3 -13 10 -13 16 1 7 9 2 19 -10 10 -12
21 -20 23 -17 3 2 11 -2 18 -11 7 -8 18 -15 25 -15 17 0 25 -33 11 -52 -6 -8
-17 -13 -24 -10 -8 2 -12 -2 -10 -13 2 -10 -3 -20 -9 -22 -7 -3 -13 -1 -13 4
0 14 -61 7 -80 -10 -11 -9 -27 -13 -40 -10 -19 5 -22 11 -17 46 l5 39 -34 -5
c-19 -3 -34 -2 -34 4 0 5 4 9 8 9 5 0 14 18 21 41 9 30 16 39 27 35 22 -9 54
11 48 29 -8 20 20 20 36 0z m185 5 c3 -5 -2 -10 -12 -10 -24 0 -43 -19 -36
-36 6 -16 2 -17 -21 -8 -14 5 -12 11 11 34 30 30 48 36 58 20z m45 -70 c12 -8
11 -10 -7 -10 -13 0 -23 5 -23 10 0 13 11 13 30 0z m-380 -100 c0 -5 -4 -10
-10 -10 -5 0 -10 5 -10 10 0 6 5 10 10 10 6 0 10 -4 10 -10z m640 6 c0 -3 -4
-8 -10 -11 -5 -3 -10 -1 -10 4 0 6 5 11 10 11 6 0 10 -2 10 -4z m-593 -38 c-3
-7 -5 -2 -5 12 0 14 2 19 5 13 2 -7 2 -19 0 -25z m-30 0 c-3 -8 -6 -5 -6 6 -1
11 2 17 5 13 3 -3 4 -12 1 -19z m-17 -69 c0 -5 -7 -9 -15 -9 -8 0 -15 7 -15
15 0 9 6 12 15 9 8 -4 15 -10 15 -15z m82 -27 c-2 -8 4 -16 16 -19 11 -3 23
-11 26 -19 4 -11 -8 -14 -62 -13 -37 0 -61 3 -54 6 18 7 15 30 -5 39 -15 6
-13 8 11 13 49 10 74 7 68 -7z"/>
<path d="M17300 9710 c0 -5 5 -10 11 -10 5 0 7 5 4 10 -3 6 -8 10 -11 10 -2 0
-4 -4 -4 -10z"/>
<path d="M15585 9692 c-4 -4 -11 -7 -16 -7 -5 0 -9 -3 -9 -7 0 -5 0 -11 0 -14
0 -4 6 -1 14 5 8 6 18 11 22 10 19 -3 37 1 30 8 -9 10 -33 12 -41 5z"/>
<path d="M17245 9690 c-3 -5 -1 -10 4 -10 6 0 11 5 11 10 0 6 -2 10 -4 10 -3
0 -8 -4 -11 -10z"/>
<path d="M17270 9671 c-6 -12 -6 -22 -1 -26 12 -7 24 12 17 24 -4 5 0 12 6 14
10 4 10 6 1 6 -7 1 -17 -8 -23 -18z"/>
<path d="M14111 9664 c0 -11 3 -14 6 -6 3 7 2 16 -1 19 -3 4 -6 -2 -5 -13z"/>
<path d="M14150 9655 c0 -14 -4 -25 -10 -25 -5 0 -10 -6 -10 -14 0 -8 -6 -17
-12 -19 -10 -4 -10 -6 0 -6 6 -1 12 -10 12 -22 0 -16 5 -20 27 -17 31 4 44 28
15 28 -18 0 -20 5 -16 50 3 28 2 50 -1 50 -3 0 -5 -11 -5 -25z"/>
<path d="M17325 9669 c-11 -17 1 -21 15 -4 8 9 8 15 2 15 -6 0 -14 -5 -17 -11z"/>
<path d="M14170 9641 c0 -6 5 -13 10 -16 6 -3 10 1 10 9 0 9 -4 16 -10 16 -5
0 -10 -4 -10 -9z"/>
<path d="M13903 9593 c-26 -26 -28 -33 -13 -33 18 0 55 40 44 48 -5 5 -19 -2
-31 -15z"/>
<path d="M14326 9560 c-4 -25 -12 -40 -21 -40 -9 0 -12 6 -9 15 4 10 0 15 -11
15 -12 0 -15 -5 -11 -16 3 -9 6 -18 6 -20 0 -14 42 0 54 19 23 37 29 67 13 67
-9 0 -17 -15 -21 -40z"/>
<path d="M13920 9550 c0 -5 5 -10 11 -10 5 0 7 5 4 10 -3 6 -8 10 -11 10 -2 0
-4 -4 -4 -10z"/>
<path d="M14432 9533 c2 -10 -3 -23 -11 -29 -9 -7 -10 -13 -4 -17 6 -4 18 2
28 13 10 11 13 20 7 20 -6 0 -9 7 -6 15 4 8 1 15 -6 15 -6 0 -10 -8 -8 -17z"/>
<path d="M16795 9530 c-3 -5 -1 -10 4 -10 6 0 11 5 11 10 0 6 -2 10 -4 10 -3
0 -8 -4 -11 -10z"/>
<path d="M16860 9531 c0 -5 -8 -12 -17 -14 -10 -2 -4 -4 13 -3 21 1 30 5 27
14 -6 14 -23 16 -23 3z"/>
<path d="M17090 9500 c0 -5 5 -10 10 -10 6 0 10 5 10 10 0 6 -4 10 -10 10 -5
0 -10 -4 -10 -10z"/>
<path d="M16160 9470 c0 -18 -10 -24 -32 -22 -11 2 -31 -28 -24 -35 4 -4 16
-2 26 5 11 6 27 9 37 6 15 -5 16 -4 3 5 -10 7 -11 11 -2 11 6 0 12 11 12 25 0
14 -4 25 -10 25 -5 0 -10 -9 -10 -20z"/>
<path d="M16721 9474 c0 -11 3 -14 6 -6 3 7 2 16 -1 19 -3 4 -6 -2 -5 -13z"/>
<path d="M14375 9470 c3 -5 10 -10 16 -10 5 0 9 5 9 10 0 6 -7 10 -16 10 -8 0
-12 -4 -9 -10z"/>
<path d="M14465 9460 c-3 -5 1 -10 9 -10 8 0 18 5 21 10 3 6 -1 10 -9 10 -8 0
-18 -4 -21 -10z"/>
<path d="M16040 9450 c0 -5 5 -10 10 -10 6 0 10 5 10 10 0 6 -4 10 -10 10 -5
0 -10 -4 -10 -10z"/>
<path d="M16620 9440 c0 -5 5 -10 10 -10 6 0 10 5 10 10 0 6 -4 10 -10 10 -5
0 -10 -4 -10 -10z"/>
<path d="M16553 9406 c2 -6 16 -12 31 -14 35 -4 26 14 -9 20 -16 4 -24 1 -22
-6z"/>
<path d="M16150 9390 c-11 -7 -5 -10 23 -10 20 0 37 5 37 10 0 13 -40 13 -60
0z"/>
<path d="M16640 9376 c0 -9 5 -16 10 -16 6 0 10 4 10 9 0 6 -4 13 -10 16 -5 3
-10 -1 -10 -9z"/>
<path d="M16276 9371 c-4 -5 0 -12 6 -15 7 -3 4 -4 -7 -1 -37 7 -121 14 -93 7
15 -4 36 -15 47 -24 11 -9 28 -14 39 -11 11 2 34 -3 51 -12 17 -8 36 -13 41
-10 15 9 2 25 -21 25 -12 0 -19 7 -19 19 0 10 -7 22 -16 25 -20 8 -22 8 -28
-3z"/>
<path d="M14830 9345 c0 -8 5 -15 10 -15 6 0 10 7 10 15 0 8 -4 15 -10 15 -5
0 -10 -7 -10 -15z"/>
<path d="M16855 9338 c-4 -10 -4 -26 0 -35 6 -17 7 -17 16 0 7 11 7 23 0 35
-9 16 -10 16 -16 0z"/>
<path d="M14640 9330 c0 -5 5 -10 11 -10 5 0 7 5 4 10 -3 6 -8 10 -11 10 -2 0
-4 -4 -4 -10z"/>
<path d="M14793 9313 c9 -9 20 -13 24 -9 4 4 1 11 -7 16 -25 16 -35 11 -17 -7z"/>
<path d="M17455 9739 c-4 -6 -5 -13 -2 -16 7 -7 27 6 27 18 0 12 -17 12 -25
-2z"/>
<path d="M10210 9590 c0 -5 5 -10 10 -10 6 0 10 5 10 10 0 6 -4 10 -10 10 -5
0 -10 -4 -10 -10z"/>
<path d="M6640 8250 c0 -5 5 -10 11 -10 5 0 7 5 4 10 -3 6 -8 10 -11 10 -2 0
-4 -4 -4 -10z"/>
<path d="M8291 10764 c0 -11 3 -14 6 -6 3 7 2 16 -1 19 -3 4 -6 -2 -5 -13z"/>
<path d="M10100 9771 c0 -6 4 -13 10 -16 6 -3 7 1 4 9 -7 18 -14 21 -14 7z"/>
<path d="M13007 9753 c-4 -3 -7 -11 -7 -17 0 -6 5 -5 12 2 6 6 9 14 7 17 -3 3
-9 2 -12 -2z"/>
<path d="M13213 9753 c9 -2 17 -10 17 -18 0 -14 48 -27 55 -15 6 9 -57 41 -77
39 -7 -1 -5 -3 5 -6z"/>
<path d="M10130 9729 c0 -5 5 -7 10 -4 6 3 10 8 10 11 0 2 -4 4 -10 4 -5 0
-10 -5 -10 -11z"/>
<path d="M10095 9690 c-10 -12 -25 -18 -33 -15 -13 5 -13 3 -1 -11 11 -13 15
-14 23 -2 6 8 19 17 29 21 9 3 17 11 17 17 0 16 -15 12 -35 -10z"/>
<path d="M13008 9698 c9 -9 15 -9 24 0 9 9 7 12 -12 12 -19 0 -21 -3 -12 -12z"/>
<path d="M10048 9693 c6 -2 18 -2 25 0 6 3 1 5 -13 5 -14 0 -19 -2 -12 -5z"/>
<path d="M10356 9684 c-9 -23 -2 -28 13 -10 7 8 8 17 3 20 -6 3 -13 -1 -16
-10z"/>
<path d="M11275 9680 c3 -5 8 -10 11 -10 2 0 4 5 4 10 0 6 -5 10 -11 10 -5 0
-7 -4 -4 -10z"/>
<path d="M12620 9680 c0 -5 5 -10 10 -10 6 0 10 5 10 10 0 6 -4 10 -10 10 -5
0 -10 -4 -10 -10z"/>
<path d="M12710 9660 c0 -5 5 -10 11 -10 5 0 7 5 4 10 -3 6 -8 10 -11 10 -2 0
-4 -4 -4 -10z"/>
<path d="M12846 9661 c-3 -5 0 -11 8 -14 15 -6 26 1 26 15 0 11 -27 10 -34 -1z"/>
<path d="M10010 9650 c-8 -5 -12 -11 -9 -14 3 -3 14 1 25 9 21 16 8 20 -16 5z"/>
<path d="M12149 9655 c-11 -11 15 -55 34 -55 23 0 22 21 -2 27 -11 3 -21 12
-23 20 -2 8 -6 12 -9 8z"/>
<path d="M11366 9641 c-4 -5 -2 -12 3 -15 5 -4 12 -2 15 3 4 5 2 12 -3 15 -5
4 -12 2 -15 -3z"/>
<path d="M10057 9629 c6 -6 9 -19 6 -28 -5 -14 -3 -13 13 2 16 15 17 19 4 27
-21 13 -36 12 -23 -1z"/>
<path d="M11400 9630 c0 -5 5 -10 11 -10 5 0 7 5 4 10 -3 6 -8 10 -11 10 -2 0
-4 -4 -4 -10z"/>
<path d="M11435 9629 c-4 -6 -5 -12 -2 -15 2 -3 7 2 10 11 7 17 1 20 -8 4z"/>
<path d="M12634 9618 c0 -14 6 -18 26 -16 30 4 29 21 -3 29 -18 5 -23 2 -23
-13z"/>
<path d="M11200 9600 c0 -5 5 -10 10 -10 6 0 10 5 10 10 0 6 -4 10 -10 10 -5
0 -10 -4 -10 -10z"/>
<path d="M12231 9594 c-7 -8 -10 -18 -6 -22 4 -4 10 -1 12 6 3 6 14 12 24 12
11 0 17 5 14 10 -9 14 -28 12 -44 -6z"/>
<path d="M11045 9589 c-4 -6 -5 -12 -2 -15 2 -3 7 2 10 11 7 17 1 20 -8 4z"/>
<path d="M12080 9590 c0 -5 4 -10 9 -10 6 0 13 5 16 10 3 6 -1 10 -9 10 -9 0
-16 -4 -16 -10z"/>
<path d="M11134 9575 c4 -11 0 -26 -11 -38 -18 -19 -17 -20 5 -8 12 6 22 18
22 26 0 8 0 18 1 22 0 4 -5 9 -12 12 -8 2 -10 -2 -5 -14z"/>
<path d="M11185 9570 c3 -5 8 -10 11 -10 2 0 4 5 4 10 0 6 -5 10 -11 10 -5 0
-7 -4 -4 -10z"/>
<path d="M11300 9568 c0 -9 5 -20 11 -23 17 -11 20 0 4 21 -13 17 -14 17 -15
2z"/>
<path d="M11265 9550 c-3 -5 -1 -10 4 -10 6 0 11 5 11 10 0 6 -2 10 -4 10 -3
0 -8 -4 -11 -10z"/>
<path d="M10370 9540 c0 -5 5 -10 10 -10 6 0 10 5 10 10 0 6 -4 10 -10 10 -5
0 -10 -4 -10 -10z"/>
<path d="M11200 9540 c0 -5 10 -10 23 -10 18 0 19 2 7 10 -19 13 -30 13 -30 0z"/>
<path d="M9987 9533 c-4 -3 -7 -11 -7 -17 0 -6 5 -5 12 2 6 6 9 14 7 17 -3 3
-9 2 -12 -2z"/>
<path d="M10055 9530 c-3 -5 -1 -10 4 -10 6 0 11 5 11 10 0 6 -2 10 -4 10 -3
0 -8 -4 -11 -10z"/>
<path d="M9928 9523 c7 -3 16 -2 19 1 4 3 -2 6 -13 5 -11 0 -14 -3 -6 -6z"/>
<path d="M11075 9520 c-3 -5 -2 -10 4 -10 5 0 13 5 16 10 3 6 2 10 -4 10 -5 0
-13 -4 -16 -10z"/>
<path d="M11288 9523 c7 -3 16 -2 19 1 4 3 -2 6 -13 5 -11 0 -14 -3 -6 -6z"/>
<path d="M11677 9510 c3 -11 9 -17 15 -14 5 3 4 12 -3 20 -16 19 -18 18 -12
-6z"/>
<path d="M11186 9511 c-4 -7 -5 -15 -2 -18 9 -9 19 4 14 18 -4 11 -6 11 -12 0z"/>
<path d="M9905 9500 c-3 -5 -1 -10 4 -10 6 0 11 5 11 10 0 6 -2 10 -4 10 -3 0
-8 -4 -11 -10z"/>
<path d="M9932 9499 c2 -7 10 -15 17 -17 8 -3 12 1 9 9 -2 7 -10 15 -17 17 -8
3 -12 -1 -9 -9z"/>
<path d="M11040 9500 c0 -5 5 -10 10 -10 6 0 10 5 10 10 0 6 -4 10 -10 10 -5
0 -10 -4 -10 -10z"/>
<path d="M11115 9500 c-3 -5 -1 -10 4 -10 6 0 11 5 11 10 0 6 -2 10 -4 10 -3
0 -8 -4 -11 -10z"/>
<path d="M11215 9500 c-3 -5 -1 -10 4 -10 6 0 11 5 11 10 0 6 -2 10 -4 10 -3
0 -8 -4 -11 -10z"/>
<path d="M11630 9481 c0 -12 5 -21 10 -21 6 0 10 6 10 14 0 8 -4 18 -10 21 -5
3 -10 -3 -10 -14z"/>
<path d="M11150 9480 c0 -5 5 -10 10 -10 6 0 10 5 10 10 0 6 -4 10 -10 10 -5
0 -10 -4 -10 -10z"/>
<path d="M11088 9456 c-4 -17 -1 -23 9 -19 15 6 18 29 4 37 -5 3 -11 -5 -13
-18z"/>
<path d="M11050 9461 c0 -6 5 -13 10 -16 6 -3 10 1 10 9 0 9 -4 16 -10 16 -5
0 -10 -4 -10 -9z"/>
<path d="M11145 9450 c-3 -5 3 -10 15 -10 12 0 18 5 15 10 -3 6 -10 10 -15 10
-5 0 -12 -4 -15 -10z"/>
<path d="M10793 9425 c-9 -10 -10 -16 -2 -21 7 -4 9 -23 6 -47 -3 -24 -2 -35
3 -28 4 8 15 11 24 8 19 -8 21 9 3 20 -19 11 -28 54 -15 70 14 18 -4 16 -19
-2z"/>
<path d="M10990 9429 c0 -5 5 -7 10 -4 6 3 10 8 10 11 0 2 -4 4 -10 4 -5 0
-10 -5 -10 -11z"/>
<path d="M11200 9432 c0 -7 -9 -12 -20 -12 -11 0 -20 -4 -20 -10 0 -17 37 -11
44 6 4 9 4 19 1 22 -3 3 -5 0 -5 -6z"/>
<path d="M11768 9433 c6 -2 18 -2 25 0 6 3 1 5 -13 5 -14 0 -19 -2 -12 -5z"/>
<path d="M10630 9381 c0 -6 4 -13 10 -16 6 -3 7 1 4 9 -7 18 -14 21 -14 7z"/>
<path d="M9416 9365 c-3 -9 0 -15 9 -15 8 0 15 7 15 15 0 8 -4 15 -9 15 -5 0
-11 -7 -15 -15z"/>
<path d="M10912 9364 c-7 -8 -12 -20 -9 -27 2 -7 9 -2 16 11 15 28 11 36 -7
16z"/>
<path d="M10580 9366 c0 -2 7 -6 15 -10 8 -3 15 -1 15 4 0 6 -7 10 -15 10 -8
0 -15 -2 -15 -4z"/>
<path d="M10710 9349 c0 -5 5 -7 10 -4 6 3 10 8 10 11 0 2 -4 4 -10 4 -5 0
-10 -5 -10 -11z"/>
<path d="M10727 9327 c-11 -8 -15 -20 -11 -34 7 -24 21 -27 64 -13 26 8 12 14
-27 10 -25 -2 -30 9 -11 28 17 17 5 24 -15 9z"/>
<path d="M9338 9322 c-10 -2 -18 -10 -18 -18 0 -8 -8 -14 -17 -15 -15 0 -15
-2 2 -9 25 -11 41 -12 32 -3 -4 3 0 15 10 25 18 21 16 26 -9 20z"/>
<path d="M10805 9310 c-3 -5 -1 -10 4 -10 6 0 11 5 11 10 0 6 -2 10 -4 10 -3
0 -8 -4 -11 -10z"/>
<path d="M10848 9300 c-18 -21 -13 -26 11 -11 7 5 12 14 10 20 -3 7 -11 3 -21
-9z"/>
<path d="M8040 9295 c-6 -8 -10 -19 -8 -26 2 -6 9 0 16 15 13 29 10 33 -8 11z"/>
<path d="M9271 9284 c0 -11 3 -14 6 -6 3 7 2 16 -1 19 -3 4 -6 -2 -5 -13z"/>
<path d="M9225 9280 c3 -5 8 -10 11 -10 2 0 4 5 4 10 0 6 -5 10 -11 10 -5 0
-7 -4 -4 -10z"/>
<path d="M9533 9275 c-17 -18 -16 -25 1 -25 7 0 16 9 19 20 6 23 -3 25 -20 5z"/>
<path d="M8995 9260 c-3 -6 1 -7 9 -4 18 7 21 14 7 14 -6 0 -13 -4 -16 -10z"/>
<path d="M7960 9246 c0 -9 8 -16 20 -16 11 0 20 5 20 12 0 6 -3 8 -7 5 -3 -4
-12 -2 -20 4 -10 9 -13 8 -13 -5z"/>
<path d="M9289 9246 c12 -15 5 -46 -11 -46 -5 0 -6 -4 -3 -10 4 -6 15 -4 29 5
29 19 25 65 -6 65 -16 0 -18 -3 -9 -14z"/>
<path d="M9615 9240 c4 -6 11 -8 16 -5 14 9 11 15 -7 15 -8 0 -12 -5 -9 -10z"/>
<path d="M7182 8295 c-12 -15 -22 -24 -22 -20 0 4 -7 2 -15 -5 -23 -19 -18
-27 15 -25 17 1 30 -2 30 -7 0 -18 27 -7 40 17 15 28 4 50 -11 22 -6 -9 -15
-15 -20 -11 -6 4 -6 11 1 20 7 7 10 19 8 25 -2 7 -13 1 -26 -16z"/>
</g>
</svg>
