<?xml version="1.0" encoding="utf-8"?>
<!-- Generator: Adobe Illustrator 27.5.0, SVG Export Plug-In . SVG Version: 6.00 Build 0)  -->
<svg version="1.1" id="Layer_1" xmlns="http://www.w3.org/2000/svg" xmlns:xlink="http://www.w3.org/1999/xlink" x="0px" y="0px"
	 viewBox="0 0 9000 4000" style="enable-background:new 0 0 9000 4000;" xml:space="preserve">
<g>
	<rect x="0.462" y="0.406" style="fill-rule:evenodd;clip-rule:evenodd;" width="8999.084" height="3999.594"/>
	<g>
		<defs>
			<path id="SVGID_1_" d="M0.462,1647.241v1387.814c198.992,238.861,498.649,390.917,833.844,390.917
				c599.13,0,1084.823-485.694,1084.823-1084.825c0-599.13-485.693-1084.823-1084.823-1084.823
				C499.111,1256.323,199.454,1408.379,0.462,1647.241 M834.306,1771.041c314.861,0,570.104,255.244,570.104,570.105
				c0,314.864-255.242,570.107-570.104,570.107c-314.864,0-570.107-255.243-570.107-570.107
				C264.199,2026.285,519.441,1771.041,834.306,1771.041z"/>
		</defs>
		<clipPath id="SVGID_00000165930945436719598950000015755193883958854837_">
			<use xlink:href="#SVGID_1_"  style="overflow:visible;"/>
		</clipPath>
		
			<linearGradient id="SVGID_00000060010164714286199190000009535364033743607982_" gradientUnits="userSpaceOnUse" x1="223.5186" y1="1600.6667" x2="1710.8994" y2="3096.5398">
			<stop  offset="0" style="stop-color:#000000"/>
			<stop  offset="1" style="stop-color:#003B41"/>
		</linearGradient>
		
			<rect x="0.462" y="1256.323" style="clip-path:url(#SVGID_00000165930945436719598950000015755193883958854837_);fill:url(#SVGID_00000060010164714286199190000009535364033743607982_);" width="1918.667" height="2169.649"/>
	</g>
	<g>
		<defs>
			<path id="SVGID_00000023273806179007021930000009587640674232896935_" d="M3377.934,0.406H1649.026
				c-138.265,182.083-220.372,409.138-220.372,655.401c0,599.13,485.694,1084.824,1084.824,1084.824
				s1084.824-485.694,1084.824-1084.824C3598.303,409.544,3516.196,182.49,3377.934,0.406 M2513.479,85.7
				c314.863,0,570.105,255.243,570.105,570.107c0,314.861-255.242,570.105-570.105,570.105
				c-314.861,0-570.105-255.243-570.105-570.105C1943.373,340.943,2198.617,85.7,2513.479,85.7z"/>
		</defs>
		<clipPath id="SVGID_00000110453957363717884540000012477097201252009107_">
			<use xlink:href="#SVGID_00000023273806179007021930000009587640674232896935_"  style="overflow:visible;"/>
		</clipPath>
		
			<linearGradient id="SVGID_00000104704589696480654540000003054272039618662541_" gradientUnits="userSpaceOnUse" x1="1950.5531" y1="-8.8314" x2="3035.7117" y2="1686.3016">
			<stop  offset="0" style="stop-color:#000000"/>
			<stop  offset="1" style="stop-color:#003B41"/>
		</linearGradient>
		
			<rect x="1428.654" y="0.406" style="clip-path:url(#SVGID_00000110453957363717884540000012477097201252009107_);fill:url(#SVGID_00000104704589696480654540000003054272039618662541_);" width="2169.649" height="1740.224"/>
	</g>
	<g>
		<defs>
			<path id="SVGID_00000149355318649689414080000010058125044767846564_" d="M1490.474,0.406H0.462v1575.308
				c191.417,169.561,443.148,272.559,718.975,272.559c599.13,0,1084.824-485.693,1084.824-1084.824
				C1804.262,465.917,1684.444,196.397,1490.474,0.406 M719.438,193.342c314.863,0,570.107,255.243,570.107,570.107
				c0,314.861-255.244,570.105-570.107,570.105s-570.105-255.243-570.105-570.105C149.332,448.586,404.575,193.342,719.438,193.342z
				"/>
		</defs>
		<clipPath id="SVGID_00000067949717873867479800000014779243644737763518_">
			<use xlink:href="#SVGID_00000149355318649689414080000010058125044767846564_"  style="overflow:visible;"/>
		</clipPath>
		
			<linearGradient id="SVGID_00000076603019058393978910000014623600589420556991_" gradientUnits="userSpaceOnUse" x1="-18.1998" y1="19.3899" x2="1582.6848" y2="1593.1243">
			<stop  offset="0" style="stop-color:#000000"/>
			<stop  offset="1" style="stop-color:#003B41"/>
		</linearGradient>
		
			<rect x="0.462" y="0.406" style="clip-path:url(#SVGID_00000067949717873867479800000014779243644737763518_);fill:url(#SVGID_00000076603019058393978910000014623600589420556991_);" width="1803.8" height="1847.867"/>
	</g>
	<g>
		<defs>
			<path id="SVGID_00000042014091264956582580000015870105909053884548_" d="M8999.547,1647.241v1387.814
				c-198.992,238.861-498.647,390.917-833.843,390.917c-599.13,0-1084.824-485.694-1084.824-1084.825
				c0-599.13,485.694-1084.823,1084.824-1084.823C8500.899,1256.323,8800.555,1408.379,8999.547,1647.241 M8165.704,1771.041
				c-314.863,0-570.105,255.244-570.105,570.105c0,314.864,255.242,570.107,570.105,570.107
				c314.863,0,570.105-255.243,570.105-570.107C8735.81,2026.285,8480.567,1771.041,8165.704,1771.041z"/>
		</defs>
		<clipPath id="SVGID_00000068648138172039866580000004295252094631281556_">
			<use xlink:href="#SVGID_00000042014091264956582580000015870105909053884548_"  style="overflow:visible;"/>
		</clipPath>
		
			<linearGradient id="SVGID_00000034772149921119856100000011767473474702139543_" gradientUnits="userSpaceOnUse" x1="8776.5" y1="1600.6565" x2="7289.1172" y2="3096.5317">
			<stop  offset="0" style="stop-color:#000000"/>
			<stop  offset="1" style="stop-color:#003B41"/>
		</linearGradient>
		
			<rect x="7080.88" y="1256.323" style="clip-path:url(#SVGID_00000068648138172039866580000004295252094631281556_);fill:url(#SVGID_00000034772149921119856100000011767473474702139543_);" width="1918.666" height="2169.649"/>
	</g>
	<g>
		<defs>
			<path id="SVGID_00000158733003375184973430000008457043403937118611_" d="M5622.078,0.406h1728.905
				c138.265,182.083,220.372,409.138,220.372,655.401c0,599.13-485.694,1084.824-1084.824,1084.824
				S5401.706,1254.937,5401.706,655.807C5401.706,409.544,5483.813,182.49,5622.078,0.406 M6486.53,85.7
				c-314.863,0-570.105,255.243-570.105,570.107c0,314.861,255.243,570.105,570.105,570.105s570.105-255.243,570.105-570.105
				C7056.635,340.943,6801.393,85.7,6486.53,85.7z"/>
		</defs>
		<clipPath id="SVGID_00000131325743838527872110000010606922033817944970_">
			<use xlink:href="#SVGID_00000158733003375184973430000008457043403937118611_"  style="overflow:visible;"/>
		</clipPath>
		
			<linearGradient id="SVGID_00000012461375027318609140000012945506074079253398_" gradientUnits="userSpaceOnUse" x1="7049.4609" y1="-8.8403" x2="5964.3027" y2="1686.2927">
			<stop  offset="0" style="stop-color:#000000"/>
			<stop  offset="1" style="stop-color:#003B41"/>
		</linearGradient>
		
			<rect x="5401.706" y="0.406" style="clip-path:url(#SVGID_00000131325743838527872110000010606922033817944970_);fill:url(#SVGID_00000012461375027318609140000012945506074079253398_);" width="2169.649" height="1740.224"/>
	</g>
	<g>
		<defs>
			<path id="SVGID_00000090987112817020560300000000116525416356222091_" d="M7509.535,0.406h1490.012v1575.308
				c-191.418,169.561-443.15,272.559-718.976,272.559c-599.13,0-1084.825-485.693-1084.825-1084.824
				C7195.747,465.917,7315.566,196.397,7509.535,0.406 M8280.571,193.342c-314.863,0-570.105,255.243-570.105,570.107
				c0,314.861,255.242,570.105,570.105,570.105c314.862,0,570.105-255.243,570.105-570.105
				C8850.677,448.586,8595.434,193.342,8280.571,193.342z"/>
		</defs>
		<clipPath id="SVGID_00000105408643366779240720000016207806971823344032_">
			<use xlink:href="#SVGID_00000090987112817020560300000000116525416356222091_"  style="overflow:visible;"/>
		</clipPath>
		
			<linearGradient id="SVGID_00000133512709484722805510000018251384932946220189_" gradientUnits="userSpaceOnUse" x1="9018.208" y1="19.3899" x2="7417.3237" y2="1593.1241">
			<stop  offset="0" style="stop-color:#000000"/>
			<stop  offset="1" style="stop-color:#003B41"/>
		</linearGradient>
		
			<rect x="7195.747" y="0.406" style="clip-path:url(#SVGID_00000105408643366779240720000016207806971823344032_);fill:url(#SVGID_00000133512709484722805510000018251384932946220189_);" width="1803.8" height="1847.867"/>
	</g>
</g>
</svg>
